<svg xmlns="http://www.w3.org/2000/svg" xmlns:xlink="http://www.w3.org/1999/xlink" version="1.1" x="0px" y="0px" viewBox="0 0 100 125" enable-background="new 0 0 100 100" xml:space="preserve"><path fill-rule="evenodd" clip-rule="evenodd" d="M4.576,30.377c0.022,7.867,1.531,14.597,6.914,19.957  c0.326,0.322,0.523,0.78,0.864,1.082c1.36,1.202,0.576,2.314-0.32,3.119c-1.242,1.122-1.809-0.359-2.411-1.008  c-7.104-7.683-8.958-16.962-8.136-27.045c0.367-4.499,0.721-9,1.038-13.502c0.221-3.146,1.198-3.706,3.898-1.974  c4.974,3.191,9.841,6.55,14.344,10.388c1.468,1.253,2.458,1.343,4.166,0.191c14.547-9.805,35.479-9.778,50.134,0.04  c1.71,1.147,2.812,0.975,4.242-0.232c4.607-3.892,9.498-7.404,14.606-10.611c1.96-1.229,3.345-1.068,3.5,1.58  c0.417,7.049,1.237,14.115,1.048,21.15c-0.21,7.776-2.367,15.07-8.753,20.405c-0.85,0.711-1.298,1.139-2.195,0.164  c-0.813-0.877-1.175-1.458-0.059-2.476c7.988-7.279,8.475-16.738,7.604-26.581c-0.235-2.652-0.408-5.311-0.562-7.969  c-0.091-1.573-0.38-2.658-2.191-1.333c-3.741,2.734-7.474,5.479-11.231,8.184c-1.085,0.782-1.271,1.507-0.258,2.499  c0.744,0.726,1.422,1.531,2.042,2.365c0.563,0.755,1.634,1.433,0.249,2.536c-1.308,1.041-1.945,0.439-2.778-0.586  c-5.59-6.886-12.998-10.775-21.579-12.212c-15.037-2.518-28.589,0.229-39.107,12.277c-0.94,1.078-1.594,1.408-2.781,0.479  c-1.399-1.096-0.227-1.798,0.313-2.546c2.904-4.025,2.935-4.043-1.056-6.977c-2.798-2.057-5.666-4.021-8.486-6.047  c-1.426-1.023-2.028-0.637-2.133,1.063C5.21,21.495,4.862,26.228,4.576,30.377z"/><path fill-rule="evenodd" clip-rule="evenodd" d="M57.73,65.691c-5.343-4.842-10.849-3.766-16.215-3.304  c4.268-5.625,25.064-4.922,30.439,1.37c-3.485-0.51-6.419-1.81-9.475-2.659c-2.991-0.832-6.055-1.362-9.578-0.185  c1.75,1.425,3.503,2.008,5.222,2.605c3.048,1.068,6.182,1.901,9.176,3.093c5.299,2.109,7.004,6.324,5.066,11.807  c-1.441,4.083-4.458,6.66-8.091,8.679c-0.935,0.52-2.008,1.079-2.767-0.075c-0.737-1.121,0.054-1.979,0.98-2.586  c2.288-1.501,4.114-3.355,4.989-6.026c0.818-2.498,0.243-4.438-1.92-6.08c-6.517-4.942-20.807-5.383-27.45-0.75  c-3.21,2.24-3.717,4.666-1.628,8.027c1.617,2.605,3.91,4.557,6.328,6.375c1.063,0.799,2.202,1.696,1.005,3.087  c-1.112,1.292-2.134,0.077-2.986-0.543c-3.019-2.19-5.776-4.662-7.557-8.021c-2.399-4.525-1.445-8.677,2.851-11.455  c5.587-3.616,11.839-4.358,18.328-3.767C55.23,65.354,56.009,65.477,57.73,65.691z"/><path fill-rule="evenodd" clip-rule="evenodd" d="M29.725,49.873c-2.242-0.225-3.64-1.593-3.652-3.524  c-0.011-1.766,0.833-3.656,3.029-4.024c1.949-0.327,4.524,1.924,4.463,3.856C33.487,48.671,31.401,49.114,29.725,49.873z"/><path fill-rule="evenodd" clip-rule="evenodd" d="M70.742,49.873c-2.242-0.225-3.641-1.593-3.652-3.524  c-0.012-1.766,0.832-3.656,3.029-4.024c1.949-0.327,4.523,1.924,4.463,3.856C74.504,48.671,72.418,49.114,70.742,49.873z"/><path fill-rule="evenodd" clip-rule="evenodd" d="M41.227,79.894c-1.061-2.127-1.821-4.171,0.233-5.986  c1.068-0.945,2.058-0.203,2.516,0.813C45.222,77.484,43.188,78.617,41.227,79.894z"/><path fill-rule="evenodd" clip-rule="evenodd" d="M64.533,76.195c-0.017,1.13-0.074,2.895-1.198,2.759  c-1.49-0.179-2.942-1.359-2.823-3.382c0.073-1.263,0.404-2.421,1.926-2.35C64.275,73.304,64.615,74.649,64.533,76.195z"/></svg>